<svg xmlns="http://www.w3.org/2000/svg" xmlns:xlink="http://www.w3.org/1999/xlink" x="0" y="0" width="756.484375" height="65.56640625" style="
        width:756.484375px;
        height:65.56640625px;
        background: transparent;
        fill: none;
">
        
        
        <svg xmlns="http://www.w3.org/2000/svg" class="role-diagram-draw-area"><g class="shapes-region" style="stroke: black; fill: none;"><g class="arrow-line"><path class="connection real" stroke-dasharray="" d="  M15.6,21.2 L732.6,21.2" style="stroke: rgb(0, 0, 0); stroke-width: 1; fill: none; fill-opacity: 1;"/><g stroke="#000" transform="matrix(-1,1.2246467991473532e-16,-1.2246467991473532e-16,-1,734.6,21.20000000000002)" style="stroke: rgb(0, 0, 0); stroke-width: 1;"><path d=" M10.93,-3.29 Q4.96,-0.45 0,0 Q4.96,0.45 10.93,3.29"/></g></g><g class="composite-shape"><path class="real" d=" M150.8,21.41 C150.8,19.38 152.44,17.74 154.47,17.74 C156.49,17.74 158.13,19.38 158.13,21.41 C158.13,23.43 156.49,25.07 154.47,25.07 C152.44,25.07 150.8,23.43 150.8,21.41 Z" style="stroke-width: 1; stroke: rgb(0, 0, 0); fill: rgb(0, 0, 0); fill-opacity: 1;"/></g><g class="composite-shape"><path class="real" d=" M154.47,21.41 C154.47,19.38 156.11,17.74 158.13,17.74 C160.16,17.74 161.8,19.38 161.8,21.41 C161.8,23.43 160.16,25.07 158.13,25.07 C156.11,25.07 154.47,23.43 154.47,21.41 Z" style="stroke-width: 1; stroke: rgb(0, 0, 0); fill: rgb(0, 0, 0); fill-opacity: 1;"/></g><g class="composite-shape"><path class="real" d=" M164.47,21.41 C164.47,19.38 166.11,17.74 168.13,17.74 C170.16,17.74 171.8,19.38 171.8,21.41 C171.8,23.43 170.16,25.07 168.13,25.07 C166.11,25.07 164.47,23.43 164.47,21.41 Z" style="stroke-width: 1; stroke: rgb(0, 0, 0); fill: rgb(0, 0, 0); fill-opacity: 1;"/></g><g class="composite-shape"><path class="real" d=" M171.8,21.41 C171.8,19.38 173.44,17.74 175.47,17.74 C177.49,17.74 179.13,19.38 179.13,21.41 C179.13,23.43 177.49,25.07 175.47,25.07 C173.44,25.07 171.8,23.43 171.8,21.41 Z" style="stroke-width: 1; stroke: rgb(0, 0, 0); fill: rgb(0, 0, 0); fill-opacity: 1;"/></g><g class="composite-shape"><path class="real" d=" M168.13,21.41 C168.13,19.38 169.77,17.74 171.8,17.74 C173.83,17.74 175.47,19.38 175.47,21.41 C175.47,23.43 173.83,25.07 171.8,25.07 C169.77,25.07 168.13,23.43 168.13,21.41 Z" style="stroke-width: 1; stroke: rgb(0, 0, 0); fill: rgb(0, 0, 0); fill-opacity: 1;"/></g><g class="composite-shape"><path class="real" d=" M213.33,21.81 C213.33,19.78 214.97,18.14 217,18.14 C219.03,18.14 220.67,19.78 220.67,21.81 C220.67,23.83 219.03,25.47 217,25.47 C214.97,25.47 213.33,23.83 213.33,21.81 Z" style="stroke-width: 1; stroke: rgb(0, 0, 0); fill: rgb(0, 0, 0); fill-opacity: 1;"/></g><g class="composite-shape"><path class="real" d=" M196.93,21.81 C196.93,19.78 198.57,18.14 200.6,18.14 C202.63,18.14 204.27,19.78 204.27,21.81 C204.27,23.83 202.63,25.47 200.6,25.47 C198.57,25.47 196.93,23.83 196.93,21.81 Z" style="stroke-width: 1; stroke: rgb(0, 0, 0); fill: rgb(0, 0, 0); fill-opacity: 1;"/></g><g class="composite-shape"><path class="real" d=" M250.53,21.81 C250.53,19.78 252.17,18.14 254.2,18.14 C256.23,18.14 257.87,19.78 257.87,21.81 C257.87,23.83 256.23,25.47 254.2,25.47 C252.17,25.47 250.53,23.83 250.53,21.81 Z" style="stroke-width: 1; stroke: rgb(0, 0, 0); fill: rgb(0, 0, 0); fill-opacity: 1;"/></g><g class="composite-shape"><path class="real" d=" M309.33,21.81 C309.33,19.78 310.97,18.14 313,18.14 C315.03,18.14 316.67,19.78 316.67,21.81 C316.67,23.83 315.03,25.47 313,25.47 C310.97,25.47 309.33,23.83 309.33,21.81 Z" style="stroke-width: 1; stroke: rgb(0, 0, 0); fill: rgb(0, 0, 0); fill-opacity: 1;"/></g><g class="composite-shape"><path class="real" d=" M348.13,21.81 C348.13,19.78 349.77,18.14 351.8,18.14 C353.83,18.14 355.47,19.78 355.47,21.81 C355.47,23.83 353.83,25.47 351.8,25.47 C349.77,25.47 348.13,23.83 348.13,21.81 Z" style="stroke-width: 1; stroke: rgb(0, 0, 0); fill: rgb(0, 0, 0); fill-opacity: 1;"/></g><g class="composite-shape"><path class="real" d=" M381.33,22.21 C381.33,20.18 382.97,18.54 385,18.54 C387.03,18.54 388.67,20.18 388.67,22.21 C388.67,24.23 387.03,25.87 385,25.87 C382.97,25.87 381.33,24.23 381.33,22.21 Z" style="stroke-width: 1; stroke: rgb(0, 0, 0); fill: rgb(0, 0, 0); fill-opacity: 1;"/></g><g class="composite-shape"><path class="real" d=" M445.73,21.81 C445.73,19.78 447.37,18.14 449.4,18.14 C451.43,18.14 453.07,19.78 453.07,21.81 C453.07,23.83 451.43,25.47 449.4,25.47 C447.37,25.47 445.73,23.83 445.73,21.81 Z" style="stroke-width: 1; stroke: rgb(0, 0, 0); fill: rgb(0, 0, 0); fill-opacity: 1;"/></g><g class="composite-shape"><path class="real" d=" M525.73,22.21 C525.73,20.18 527.37,18.54 529.4,18.54 C531.43,18.54 533.07,20.18 533.07,22.21 C533.07,24.23 531.43,25.87 529.4,25.87 C527.37,25.87 525.73,24.23 525.73,22.21 Z" style="stroke-width: 1; stroke: rgb(0, 0, 0); fill: rgb(0, 0, 0); fill-opacity: 1;"/></g><g class="composite-shape"><path class="real" d=" M53.33,21.41 C53.33,19.38 54.97,17.74 57,17.74 C59.03,17.74 60.67,19.38 60.67,21.41 C60.67,23.43 59.03,25.07 57,25.07 C54.97,25.07 53.33,23.43 53.33,21.41 Z" style="stroke-width: 1; stroke: rgb(0, 0, 0); fill: rgb(0, 0, 0); fill-opacity: 1;"/></g><g class="composite-shape"><path class="real" d=" M100.13,21.41 C100.13,19.38 101.77,17.74 103.8,17.74 C105.83,17.74 107.47,19.38 107.47,21.41 C107.47,23.43 105.83,25.07 103.8,25.07 C101.77,25.07 100.13,23.43 100.13,21.41 Z" style="stroke-width: 1; stroke: rgb(0, 0, 0); fill: rgb(0, 0, 0); fill-opacity: 1;"/></g><g class="composite-shape"><path class="real" d=" M156.4,21.41 C156.4,19.38 158.04,17.74 160.07,17.74 C162.09,17.74 163.73,19.38 163.73,21.41 C163.73,23.43 162.09,25.07 160.07,25.07 C158.04,25.07 156.4,23.43 156.4,21.41 Z" style="stroke-width: 1; stroke: rgb(0, 0, 0); fill: rgb(0, 0, 0); fill-opacity: 1;"/></g><g class="composite-shape"><path class="real" d=" M160.07,21.41 C160.07,19.38 161.71,17.74 163.73,17.74 C165.76,17.74 167.4,19.38 167.4,21.41 C167.4,23.43 165.76,25.07 163.73,25.07 C161.71,25.07 160.07,23.43 160.07,21.41 Z" style="stroke-width: 1; stroke: rgb(0, 0, 0); fill: rgb(0, 0, 0); fill-opacity: 1;"/></g><g class="composite-shape"><path class="real" d=" M170.07,21.41 C170.07,19.38 171.71,17.74 173.73,17.74 C175.76,17.74 177.4,19.38 177.4,21.41 C177.4,23.43 175.76,25.07 173.73,25.07 C171.71,25.07 170.07,23.43 170.07,21.41 Z" style="stroke-width: 1; stroke: rgb(0, 0, 0); fill: rgb(0, 0, 0); fill-opacity: 1;"/></g><g class="composite-shape"><path class="real" d=" M177.4,21.41 C177.4,19.38 179.04,17.74 181.07,17.74 C183.09,17.74 184.73,19.38 184.73,21.41 C184.73,23.43 183.09,25.07 181.07,25.07 C179.04,25.07 177.4,23.43 177.4,21.41 Z" style="stroke-width: 1; stroke: rgb(0, 0, 0); fill: rgb(0, 0, 0); fill-opacity: 1;"/></g><g class="composite-shape"><path class="real" d=" M173.73,21.41 C173.73,19.38 175.37,17.74 177.4,17.74 C179.43,17.74 181.07,19.38 181.07,21.41 C181.07,23.43 179.43,25.07 177.4,25.07 C175.37,25.07 173.73,23.43 173.73,21.41 Z" style="stroke-width: 1; stroke: rgb(0, 0, 0); fill: rgb(0, 0, 0); fill-opacity: 1;"/></g><g class="composite-shape"><path class="real" d=" M202.53,21.81 C202.53,19.78 204.17,18.14 206.2,18.14 C208.23,18.14 209.87,19.78 209.87,21.81 C209.87,23.83 208.23,25.47 206.2,25.47 C204.17,25.47 202.53,23.83 202.53,21.81 Z" style="stroke-width: 1; stroke: rgb(0, 0, 0); fill: rgb(0, 0, 0); fill-opacity: 1;"/></g><g/></g><g/><g/><g/></svg>
        <svg xmlns="http://www.w3.org/2000/svg" xmlns:xlink="http://www.w3.org/1999/xlink" width="753.984375" height="63.06640625" style="width:753.984375px;height:63.06640625px;font-family:LatinModern-Math, LatinModern, Asana-Math, Asana;background:transparent;"><g><g><g><g transform="matrix(1,0,0,1,30.83984375,25.23828125)"><path transform="matrix(0.016,0,0,-0.016,0,0)" d="M104 -250L255 -250L255 -227L171 -227L171 727L255 727L255 750L104 750Z" stroke="rgb(208,2,27)" stroke-opacity="1" stroke-width="8" fill="rgb(208,2,27)" fill-opacity="1"></path></g></g></g></g><g><g><g><g transform="matrix(1,0,0,1,578.4375,25.6484375)"><path transform="matrix(0.016,0,0,-0.016,0,0)" d="M21 -227L21 -250L172 -250L172 750L21 750L21 727L105 727L105 -227Z" stroke="rgb(208,2,27)" stroke-opacity="1" stroke-width="8" fill="rgb(208,2,27)" fill-opacity="1"></path></g></g></g></g><g><g><g><g transform="matrix(1,0,0,1,89.62890625,25.23828125)"><path transform="matrix(0.016,0,0,-0.016,0,0)" d="M104 -250L255 -250L255 -227L171 -227L171 727L255 727L255 750L104 750Z" stroke="rgb(208,2,27)" stroke-opacity="1" stroke-width="8" fill="rgb(208,2,27)" fill-opacity="1"></path></g></g></g></g><g><g><g><g transform="matrix(1,0,0,1,328.02734375,25.23828125)"><path transform="matrix(0.016,0,0,-0.016,0,0)" d="M21 -227L21 -250L172 -250L172 750L21 750L21 727L105 727L105 -227Z" stroke="rgb(208,2,27)" stroke-opacity="1" stroke-width="8" fill="rgb(208,2,27)" fill-opacity="1"></path></g></g></g></g><g><g><g><g transform="matrix(1,0,0,1,209.62890625,25.6484375)"><path transform="matrix(0.016,0,0,-0.016,0,0)" d="M21 -227L21 -250L172 -250L172 750L21 750L21 727L105 727L105 -227Z" stroke="rgb(208,2,27)" stroke-opacity="1" stroke-width="8" fill="rgb(208,2,27)" fill-opacity="1"></path></g></g></g></g><g><g><g><g transform="matrix(1,0,0,1,25.234375,43.796875)"><path transform="matrix(0.017,0,0,-0.017,0,0)" d="M498 143C498 153 489 153 486 153C476 153 475 149 472 135C455 70 437 11 396 11C369 11 366 37 366 57C366 79 368 87 379 131L401 221L437 361C444 389 444 391 444 395C444 412 432 422 415 422C391 422 376 400 373 378C355 415 326 442 281 442C164 442 40 295 40 149C40 55 95 -11 173 -11C193 -11 243 -7 303 64C311 22 346 -11 394 -11C429 -11 452 12 468 44C485 80 498 143 498 143ZM361 332C361 326 359 320 358 315L308 119C303 101 303 99 288 82C244 27 203 11 175 11C125 11 111 66 111 105C111 155 143 278 166 324C197 383 242 420 282 420C347 420 361 338 361 332Z" stroke="rgb(0,0,0)" stroke-opacity="1" stroke-width="8" fill="rgb(0,0,0)" fill-opacity="1"></path></g></g><g><g><g><g><g transform="matrix(1,0,0,1,34.74609375,48.05234375)"><path transform="matrix(0.0119,0,0,-0.0119,0,0)" d="M460 320C460 400 455 480 420 554C374 650 292 666 250 666C190 666 117 640 76 547C44 478 39 400 39 320C39 245 43 155 84 79C127 -2 200 -22 249 -22C303 -22 379 -1 423 94C455 163 460 241 460 320ZM377 332C377 257 377 189 366 125C351 30 294 0 249 0C210 0 151 25 133 121C122 181 122 273 122 332C122 396 122 462 130 516C149 635 224 644 249 644C282 644 348 626 367 527C377 471 377 395 377 332Z" stroke="rgb(0,0,0)" stroke-opacity="1" stroke-width="8" fill="rgb(0,0,0)" fill-opacity="1"></path></g></g></g></g></g></g></g><g><g><g><g transform="matrix(1,0,0,1,62.03125,44.59765625)"><path transform="matrix(0.017,0,0,-0.017,0,0)" d="M498 143C498 153 489 153 486 153C476 153 475 149 472 135C455 70 437 11 396 11C369 11 366 37 366 57C366 79 368 87 379 131L401 221L437 361C444 389 444 391 444 395C444 412 432 422 415 422C391 422 376 400 373 378C355 415 326 442 281 442C164 442 40 295 40 149C40 55 95 -11 173 -11C193 -11 243 -7 303 64C311 22 346 -11 394 -11C429 -11 452 12 468 44C485 80 498 143 498 143ZM361 332C361 326 359 320 358 315L308 119C303 101 303 99 288 82C244 27 203 11 175 11C125 11 111 66 111 105C111 155 143 278 166 324C197 383 242 420 282 420C347 420 361 338 361 332Z" stroke="rgb(0,0,0)" stroke-opacity="1" stroke-width="8" fill="rgb(0,0,0)" fill-opacity="1"></path></g></g><g><g><g><g><g transform="matrix(1,0,0,1,71.54296875,48.853125)"><path transform="matrix(0.0119,0,0,-0.0119,0,0)" d="M571 143C571 153 562 153 559 153C549 153 549 150 544 135C524 67 491 11 442 11C425 11 418 21 418 44C418 69 427 93 436 115C455 168 497 278 497 335C497 402 454 442 382 442C292 442 243 378 226 355C221 411 180 442 134 442C88 442 69 403 59 385C43 351 29 292 29 288C29 278 41 278 41 278C51 278 52 279 58 301C75 372 95 420 131 420C151 420 162 407 162 374C162 353 159 342 146 290L88 59C85 44 79 21 79 16C79 -2 93 -11 108 -11C120 -11 138 -3 145 17C146 19 158 66 164 91L186 181C192 203 198 225 203 248L216 298C231 329 284 420 379 420C424 420 433 383 433 350C433 288 384 160 368 117C359 94 358 82 358 71C358 24 393 -11 440 -11C534 -11 571 135 571 143Z" stroke="rgb(0,0,0)" stroke-opacity="1" stroke-width="8" fill="rgb(0,0,0)" fill-opacity="1"></path></g></g></g></g></g><g><g transform="matrix(1,0,0,1,84.8046875,44.59765625)"><path transform="matrix(0.017,0,0,-0.017,0,0)" d="M722 347C722 358 713 367 702 367L76 367C65 367 56 358 56 347C56 336 65 327 76 327L702 327C713 327 722 336 722 347ZM722 153C722 164 713 173 702 173L76 173C65 173 56 164 56 153C56 142 65 133 76 133L702 133C713 133 722 142 722 153Z" stroke="rgb(0,0,0)" stroke-opacity="1" stroke-width="8" fill="rgb(0,0,0)" fill-opacity="1"></path></g></g><g><g transform="matrix(1,0,0,1,103.14453125,44.59765625)"><path transform="matrix(0.017,0,0,-0.017,0,0)" d="M498 143C498 153 489 153 486 153C476 153 475 149 472 135C455 70 437 11 396 11C369 11 366 37 366 57C366 79 368 87 379 131L401 221L437 361C444 389 444 391 444 395C444 412 432 422 415 422C391 422 376 400 373 378C355 415 326 442 281 442C164 442 40 295 40 149C40 55 95 -11 173 -11C193 -11 243 -7 303 64C311 22 346 -11 394 -11C429 -11 452 12 468 44C485 80 498 143 498 143ZM361 332C361 326 359 320 358 315L308 119C303 101 303 99 288 82C244 27 203 11 175 11C125 11 111 66 111 105C111 155 143 278 166 324C197 383 242 420 282 420C347 420 361 338 361 332Z" stroke="rgb(0,0,0)" stroke-opacity="1" stroke-width="8" fill="rgb(0,0,0)" fill-opacity="1"></path></g></g><g><g><g><g><g transform="matrix(1,0,0,1,112.65625,47.603125)"><path transform="matrix(0.0119,0,0,-0.0119,0,0)" d="M571 143C571 153 562 153 559 153C549 153 549 150 544 135C524 67 491 11 442 11C425 11 418 21 418 44C418 69 427 93 436 115C455 168 497 278 497 335C497 402 454 442 382 442C292 442 243 378 226 355C221 411 180 442 134 442C88 442 69 403 59 385C43 351 29 292 29 288C29 278 41 278 41 278C51 278 52 279 58 301C75 372 95 420 131 420C151 420 162 407 162 374C162 353 159 342 146 290L88 59C85 44 79 21 79 16C79 -2 93 -11 108 -11C120 -11 138 -3 145 17C146 19 158 66 164 91L186 181C192 203 198 225 203 248L216 298C231 329 284 420 379 420C424 420 433 383 433 350C433 288 384 160 368 117C359 94 358 82 358 71C358 24 393 -11 440 -11C534 -11 571 135 571 143ZM1322 250C1322 261 1313 270 1302 270L1009 270L1009 563C1009 574 1000 583 989 583C978 583 969 574 969 563L969 270L676 270C665 270 656 261 656 250C656 239 665 230 676 230L969 230L969 -63C969 -74 978 -83 989 -83C1000 -83 1009 -74 1009 -63L1009 230L1302 230C1313 230 1322 239 1322 250ZM1797 0L1797 31L1765 31C1675 31 1672 42 1672 79L1672 640C1672 664 1672 666 1649 666C1587 602 1499 602 1467 602L1467 571C1487 571 1546 571 1598 597L1598 79C1598 43 1595 31 1505 31L1473 31L1473 0C1508 3 1595 3 1635 3C1675 3 1762 3 1797 0Z" stroke="rgb(0,0,0)" stroke-opacity="1" stroke-width="8" fill="rgb(0,0,0)" fill-opacity="1"></path></g></g></g></g></g></g></g><g><g><g><g transform="matrix(1,0,0,1,574.43359375,47.390625)"><path transform="matrix(0.017,0,0,-0.017,0,0)" d="M415 282C415 373 362 442 282 442C236 442 195 413 165 382L239 683C239 683 239 694 226 694C203 694 130 686 104 684C96 683 85 682 85 664C85 652 94 652 109 652C157 652 159 645 159 635C159 628 150 594 145 573L63 247C51 197 47 181 47 146C47 51 100 -11 174 -11C292 -11 415 138 415 282ZM343 326C343 267 310 152 292 114C259 47 213 11 174 11C140 11 107 38 107 112C107 131 107 150 123 213L145 305C151 327 151 329 160 340C209 405 254 420 280 420C316 420 343 390 343 326Z" stroke="rgb(0,0,0)" stroke-opacity="1" stroke-width="8" fill="rgb(0,0,0)" fill-opacity="1"></path></g></g><g><g><g><g><g transform="matrix(1,0,0,1,582.24609375,51.64609375)"><path transform="matrix(0.0119,0,0,-0.0119,0,0)" d="M460 320C460 400 455 480 420 554C374 650 292 666 250 666C190 666 117 640 76 547C44 478 39 400 39 320C39 245 43 155 84 79C127 -2 200 -22 249 -22C303 -22 379 -1 423 94C455 163 460 241 460 320ZM377 332C377 257 377 189 366 125C351 30 294 0 249 0C210 0 151 25 133 121C122 181 122 273 122 332C122 396 122 462 130 516C149 635 224 644 249 644C282 644 348 626 367 527C377 471 377 395 377 332Z" stroke="rgb(0,0,0)" stroke-opacity="1" stroke-width="8" fill="rgb(0,0,0)" fill-opacity="1"></path></g></g></g></g></g></g></g><g><g><g><g transform="matrix(1,0,0,1,324.0234375,47.390625)"><path transform="matrix(0.017,0,0,-0.017,0,0)" d="M415 282C415 373 362 442 282 442C236 442 195 413 165 382L239 683C239 683 239 694 226 694C203 694 130 686 104 684C96 683 85 682 85 664C85 652 94 652 109 652C157 652 159 645 159 635C159 628 150 594 145 573L63 247C51 197 47 181 47 146C47 51 100 -11 174 -11C292 -11 415 138 415 282ZM343 326C343 267 310 152 292 114C259 47 213 11 174 11C140 11 107 38 107 112C107 131 107 150 123 213L145 305C151 327 151 329 160 340C209 405 254 420 280 420C316 420 343 390 343 326Z" stroke="rgb(0,0,0)" stroke-opacity="1" stroke-width="8" fill="rgb(0,0,0)" fill-opacity="1"></path></g></g><g><g><g><g><g transform="matrix(1,0,0,1,331.8359375,51.64609375)"><path transform="matrix(0.0119,0,0,-0.0119,0,0)" d="M571 143C571 153 562 153 559 153C549 153 549 150 544 135C524 67 491 11 442 11C425 11 418 21 418 44C418 69 427 93 436 115C455 168 497 278 497 335C497 402 454 442 382 442C292 442 243 378 226 355C221 411 180 442 134 442C88 442 69 403 59 385C43 351 29 292 29 288C29 278 41 278 41 278C51 278 52 279 58 301C75 372 95 420 131 420C151 420 162 407 162 374C162 353 159 342 146 290L88 59C85 44 79 21 79 16C79 -2 93 -11 108 -11C120 -11 138 -3 145 17C146 19 158 66 164 91L186 181C192 203 198 225 203 248L216 298C231 329 284 420 379 420C424 420 433 383 433 350C433 288 384 160 368 117C359 94 358 82 358 71C358 24 393 -11 440 -11C534 -11 571 135 571 143Z" stroke="rgb(0,0,0)" stroke-opacity="1" stroke-width="8" fill="rgb(0,0,0)" fill-opacity="1"></path></g></g></g></g></g></g></g><g><g><g><g transform="matrix(1,0,0,1,196.8359375,47.390625)"><path transform="matrix(0.017,0,0,-0.017,0,0)" d="M415 282C415 373 362 442 282 442C236 442 195 413 165 382L239 683C239 683 239 694 226 694C203 694 130 686 104 684C96 683 85 682 85 664C85 652 94 652 109 652C157 652 159 645 159 635C159 628 150 594 145 573L63 247C51 197 47 181 47 146C47 51 100 -11 174 -11C292 -11 415 138 415 282ZM343 326C343 267 310 152 292 114C259 47 213 11 174 11C140 11 107 38 107 112C107 131 107 150 123 213L145 305C151 327 151 329 160 340C209 405 254 420 280 420C316 420 343 390 343 326Z" stroke="rgb(0,0,0)" stroke-opacity="1" stroke-width="8" fill="rgb(0,0,0)" fill-opacity="1"></path></g></g><g><g><g><g><g transform="matrix(1,0,0,1,204.6484375,50.39609375)"><path transform="matrix(0.0119,0,0,-0.0119,0,0)" d="M571 143C571 153 562 153 559 153C549 153 549 150 544 135C524 67 491 11 442 11C425 11 418 21 418 44C418 69 427 93 436 115C455 168 497 278 497 335C497 402 454 442 382 442C292 442 243 378 226 355C221 411 180 442 134 442C88 442 69 403 59 385C43 351 29 292 29 288C29 278 41 278 41 278C51 278 52 279 58 301C75 372 95 420 131 420C151 420 162 407 162 374C162 353 159 342 146 290L88 59C85 44 79 21 79 16C79 -2 93 -11 108 -11C120 -11 138 -3 145 17C146 19 158 66 164 91L186 181C192 203 198 225 203 248L216 298C231 329 284 420 379 420C424 420 433 383 433 350C433 288 384 160 368 117C359 94 358 82 358 71C358 24 393 -11 440 -11C534 -11 571 135 571 143ZM1322 250C1322 261 1313 270 1302 270L1009 270L1009 563C1009 574 1000 583 989 583C978 583 969 574 969 563L969 270L676 270C665 270 656 261 656 250C656 239 665 230 676 230L969 230L969 -63C969 -74 978 -83 989 -83C1000 -83 1009 -74 1009 -63L1009 230L1302 230C1313 230 1322 239 1322 250ZM1797 0L1797 31L1765 31C1675 31 1672 42 1672 79L1672 640C1672 664 1672 666 1649 666C1587 602 1499 602 1467 602L1467 571C1487 571 1546 571 1598 597L1598 79C1598 43 1595 31 1505 31L1473 31L1473 0C1508 3 1595 3 1635 3C1675 3 1762 3 1797 0Z" stroke="rgb(0,0,0)" stroke-opacity="1" stroke-width="8" fill="rgb(0,0,0)" fill-opacity="1"></path></g></g></g></g></g></g></g></svg>
</svg>
