<svg xmlns="http://www.w3.org/2000/svg" xmlns:xlink="http://www.w3.org/1999/xlink" x="0" y="0" width="756.21533203125" height="85.34722900390625" style="
        width:756.21533203125px;
        height:85.34722900390625px;
        background: transparent;
        fill: none;
">
        
        
        <svg xmlns="http://www.w3.org/2000/svg" class="role-diagram-draw-area"><g class="shapes-region" style="stroke: black; fill: none;"><g class="arrow-line"><path class="connection real" stroke-dasharray="" d="  M15.6,29.2 L732.6,29.2" style="stroke: rgb(0, 0, 0); stroke-width: 1; fill: none; fill-opacity: 1;"/><g stroke="#000" transform="matrix(-1,1.2246467991473532e-16,-1.2246467991473532e-16,-1,734.6,29.20000000000002)" style="stroke: rgb(0, 0, 0); stroke-width: 1;"><path d=" M10.93,-3.29 Q4.96,-0.45 0,0 Q4.96,0.45 10.93,3.29"/></g></g><g class="arrow-line"><path class="connection real" stroke-dasharray="" d="  M199,22.02 L199,36.42" style="stroke: rgb(0, 0, 0); stroke-width: 2; fill: none; fill-opacity: 1;"/></g><g class="arrow-line"><path class="connection real" stroke-dasharray="" d="  M505.4,23.48 L505.4,37.88" style="stroke: rgb(0, 0, 0); stroke-width: 2; fill: none; fill-opacity: 1;"/></g><g class="arrow-line"><path class="connection real" stroke-dasharray="" d="  M201.55,17 L502.02,17" style="stroke: rgb(0, 0, 0); stroke-width: 1; fill: none; fill-opacity: 1;"/><g stroke="none" transform="matrix(-1,1.2246467991473532e-16,-1.2246467991473532e-16,-1,505.0181823730469,16.99999999999999)" style="stroke: none; stroke-width: 1; fill: rgb(0, 0, 0);" fill="#000"><path d=" M8.93,-4.29 L0,0 L8.93,4.29 Z"/></g><g stroke="none" transform="matrix(1,0,0,1,198.55,16.999999999999986)" style="stroke: none; stroke-width: 1; fill: rgb(0, 0, 0);" fill="#000"><path d=" M8.93,-4.29 L0,0 L8.93,4.29 Z"/></g></g><g class="arrow-line"><path class="connection real" stroke-dasharray="" d="  M303.8,22.68 L303.8,37.08" style="stroke: rgb(0, 0, 0); stroke-width: 1; fill: none; fill-opacity: 1;"/></g><g class="arrow-line"><path class="connection real" stroke-dasharray="" d="  M411.8,22.68 L411.8,37.08" style="stroke: rgb(0, 0, 0); stroke-width: 1; fill: none; fill-opacity: 1;"/></g><g class="arrow-line"><path class="connection real" stroke-dasharray="" d="  M91.4,22.28 L91.4,36.68" style="stroke: rgb(0, 0, 0); stroke-width: 1; fill: none; fill-opacity: 1;"/></g><g class="arrow-line"><path class="connection real" stroke-dasharray="" d="  M604.6,22.28 L604.6,36.68" style="stroke: rgb(0, 0, 0); stroke-width: 1; fill: none; fill-opacity: 1;"/></g><g class="arrow-line"><path class="connection real" stroke-dasharray="" d="  M310.8,25.4 L319.11,33.71" style="stroke: rgb(0, 0, 0); stroke-width: 1; fill: none; fill-opacity: 1;"/></g><g class="arrow-line"><path class="connection real" stroke-dasharray="" d="  M321.6,25.4 L329.91,33.71" style="stroke: rgb(0, 0, 0); stroke-width: 1; fill: none; fill-opacity: 1;"/></g><g class="arrow-line"><path class="connection real" stroke-dasharray="" d="  M332.8,25.4 L341.11,33.71" style="stroke: rgb(0, 0, 0); stroke-width: 1; fill: none; fill-opacity: 1;"/></g><g class="arrow-line"><path class="connection real" stroke-dasharray="" d="  M343.6,25.8 L351.91,34.11" style="stroke: rgb(0, 0, 0); stroke-width: 1; fill: none; fill-opacity: 1;"/></g><g class="arrow-line"><path class="connection real" stroke-dasharray="" d="  M354,26.2 L362.31,34.51" style="stroke: rgb(0, 0, 0); stroke-width: 1; fill: none; fill-opacity: 1;"/></g><g class="arrow-line"><path class="connection real" stroke-dasharray="" d="  M365.2,25.8 L373.51,34.11" style="stroke: rgb(0, 0, 0); stroke-width: 1; fill: none; fill-opacity: 1;"/></g><g class="arrow-line"><path class="connection real" stroke-dasharray="" d="  M376.4,25.8 L384.71,34.11" style="stroke: rgb(0, 0, 0); stroke-width: 1; fill: none; fill-opacity: 1;"/></g><g class="arrow-line"><path class="connection real" stroke-dasharray="" d="  M387.2,26.2 L395.51,34.51" style="stroke: rgb(0, 0, 0); stroke-width: 1; fill: none; fill-opacity: 1;"/></g><g class="arrow-line"><path class="connection real" stroke-dasharray="" d="  M397.6,26.6 L405.91,34.91" style="stroke: rgb(0, 0, 0); stroke-width: 1; fill: none; fill-opacity: 1;"/></g><g class="arrow-line"><path class="connection real" stroke-dasharray="" d="  M15.2,25.4 L23.51,33.71" style="stroke: rgb(0, 0, 0); stroke-width: 1; fill: none; fill-opacity: 1;"/></g><g class="arrow-line"><path class="connection real" stroke-dasharray="" d="  M26,25.8 L34.31,34.11" style="stroke: rgb(0, 0, 0); stroke-width: 1; fill: none; fill-opacity: 1;"/></g><g class="arrow-line"><path class="connection real" stroke-dasharray="" d="  M36.4,26.2 L44.71,34.51" style="stroke: rgb(0, 0, 0); stroke-width: 1; fill: none; fill-opacity: 1;"/></g><g class="arrow-line"><path class="connection real" stroke-dasharray="" d="  M47.6,25.8 L55.91,34.11" style="stroke: rgb(0, 0, 0); stroke-width: 1; fill: none; fill-opacity: 1;"/></g><g class="arrow-line"><path class="connection real" stroke-dasharray="" d="  M58.8,25.8 L67.11,34.11" style="stroke: rgb(0, 0, 0); stroke-width: 1; fill: none; fill-opacity: 1;"/></g><g class="arrow-line"><path class="connection real" stroke-dasharray="" d="  M69.6,26.2 L77.91,34.51" style="stroke: rgb(0, 0, 0); stroke-width: 1; fill: none; fill-opacity: 1;"/></g><g class="arrow-line"><path class="connection real" stroke-dasharray="" d="  M80,26.6 L88.31,34.91" style="stroke: rgb(0, 0, 0); stroke-width: 1; fill: none; fill-opacity: 1;"/></g><g class="arrow-line"><path class="connection real" stroke-dasharray="" d="  M609.2,25 L617.51,33.31" style="stroke: rgb(0, 0, 0); stroke-width: 1; fill: none; fill-opacity: 1;"/></g><g class="arrow-line"><path class="connection real" stroke-dasharray="" d="  M620,25 L628.31,33.31" style="stroke: rgb(0, 0, 0); stroke-width: 1; fill: none; fill-opacity: 1;"/></g><g class="arrow-line"><path class="connection real" stroke-dasharray="" d="  M631.2,25 L639.51,33.31" style="stroke: rgb(0, 0, 0); stroke-width: 1; fill: none; fill-opacity: 1;"/></g><g class="arrow-line"><path class="connection real" stroke-dasharray="" d="  M642,25.4 L650.31,33.71" style="stroke: rgb(0, 0, 0); stroke-width: 1; fill: none; fill-opacity: 1;"/></g><g class="arrow-line"><path class="connection real" stroke-dasharray="" d="  M652.4,25.8 L660.71,34.11" style="stroke: rgb(0, 0, 0); stroke-width: 1; fill: none; fill-opacity: 1;"/></g><g class="arrow-line"><path class="connection real" stroke-dasharray="" d="  M663.6,25.4 L671.91,33.71" style="stroke: rgb(0, 0, 0); stroke-width: 1; fill: none; fill-opacity: 1;"/></g><g class="arrow-line"><path class="connection real" stroke-dasharray="" d="  M674.8,25.4 L683.11,33.71" style="stroke: rgb(0, 0, 0); stroke-width: 1; fill: none; fill-opacity: 1;"/></g><g class="arrow-line"><path class="connection real" stroke-dasharray="" d="  M685.6,25.8 L693.91,34.11" style="stroke: rgb(0, 0, 0); stroke-width: 1; fill: none; fill-opacity: 1;"/></g><g class="arrow-line"><path class="connection real" stroke-dasharray="" d="  M696,26.2 L704.31,34.51" style="stroke: rgb(0, 0, 0); stroke-width: 1; fill: none; fill-opacity: 1;"/></g><g class="arrow-line"><path class="connection real" stroke-dasharray="" d="  M705.6,25.8 L713.91,34.11" style="stroke: rgb(0, 0, 0); stroke-width: 1; fill: none; fill-opacity: 1;"/></g><g class="arrow-line"><path class="connection real" stroke-dasharray="" d="  M716,26.2 L724.31,34.51" style="stroke: rgb(0, 0, 0); stroke-width: 1; fill: none; fill-opacity: 1;"/></g><g/></g><g/><g/><g/></svg>
        <svg xmlns="http://www.w3.org/2000/svg" xmlns:xlink="http://www.w3.org/1999/xlink" width="753.993115234375" height="83.12500610351562" style="width:753.993115234375px;height:83.12500610351562px;font-family:LatinModern-Math, LatinModern, Asana-Math, Asana;background:transparent;"><g><g><g><g transform="matrix(1,0,0,1,194.739599609375,61.201391601562506)"><path transform="matrix(0.017,0,0,-0.017,0,0)" d="M398 627C398 644 398 705 339 705C256 705 182 540 172 517C124 408 93 291 93 172L16 99C14 96 11 93 11 89C11 84 17 76 23 76C28 76 31 79 59 107C67 114 87 133 95 141C105 62 134 -12 207 -12C247 -12 282 11 303 26C317 36 364 75 364 85C364 88 361 97 352 97C349 97 348 96 339 88C275 25 238 10 209 10C164 10 148 62 148 140C148 146 150 192 153 197C155 200 155 202 175 222C256 303 398 472 398 627ZM374 631C374 464 206 289 158 239C160 250 203 472 260 589C287 643 308 683 340 683C374 683 374 647 374 631Z" stroke="rgb(0,0,0)" stroke-opacity="1" stroke-width="8" fill="rgb(0,0,0)" fill-opacity="1"></path></g></g></g></g><g><g><g><g transform="matrix(1,0,0,1,500.34724121093745,60.784716796875)"><path transform="matrix(0.017,0,0,-0.017,0,0)" d="M398 627C398 644 398 705 339 705C256 705 182 540 172 517C124 408 93 291 93 172L16 99C14 96 11 93 11 89C11 84 17 76 23 76C28 76 31 79 59 107C67 114 87 133 95 141C105 62 134 -12 207 -12C247 -12 282 11 303 26C317 36 364 75 364 85C364 88 361 97 352 97C349 97 348 96 339 88C275 25 238 10 209 10C164 10 148 62 148 140C148 146 150 192 153 197C155 200 155 202 175 222C256 303 398 472 398 627ZM374 631C374 464 206 289 158 239C160 250 203 472 260 589C287 643 308 683 340 683C374 683 374 647 374 631ZM591 670C593 690 576 705 556 705C536 705 519 690 521 670L543 423L569 423Z" stroke="rgb(0,0,0)" stroke-opacity="1" stroke-width="8" fill="rgb(0,0,0)" fill-opacity="1"></path></g></g></g></g><g><g><g><g transform="matrix(1,0,0,1,347.50002441406247,11.392358398437501)"><path transform="matrix(0.017,0,0,-0.017,0,0)" d="M429 396C429 415 368 453 300 453C185 453 77 386 77 310C77 267 113 242 117 239C58 206 26 150 26 104C26 39 83 -22 189 -22C321 -22 377 66 377 81C377 87 372 91 366 91C361 91 358 87 356 84C342 61 318 24 198 24C137 24 52 39 52 110C52 144 80 197 141 227C174 213 203 213 227 213C253 213 308 213 308 244C308 268 273 271 235 271C214 271 179 269 142 252C119 264 102 283 102 310C102 371 200 407 290 407C306 407 342 407 382 379C393 371 395 369 402 369C415 369 429 382 429 396ZM282 243C267 236 265 235 227 235C205 235 193 235 174 240C197 248 218 249 235 249C260 249 264 248 282 243Z" stroke="rgb(0,0,0)" stroke-opacity="1" stroke-width="8" fill="rgb(0,0,0)" fill-opacity="1"></path></g></g></g></g><g><g><g><g transform="matrix(1,0,0,1,67.89931640625,60.784716796875)"><path transform="matrix(0.017,0,0,-0.017,0,0)" d="M398 627C398 644 398 705 339 705C256 705 182 540 172 517C124 408 93 291 93 172L16 99C14 96 11 93 11 89C11 84 17 76 23 76C28 76 31 79 59 107C67 114 87 133 95 141C105 62 134 -12 207 -12C247 -12 282 11 303 26C317 36 364 75 364 85C364 88 361 97 352 97C349 97 348 96 339 88C275 25 238 10 209 10C164 10 148 62 148 140C148 146 150 192 153 197C155 200 155 202 175 222C256 303 398 472 398 627ZM374 631C374 464 206 289 158 239C160 250 203 472 260 589C287 643 308 683 340 683C374 683 374 647 374 631Z" stroke="rgb(0,0,0)" stroke-opacity="1" stroke-width="8" fill="rgb(0,0,0)" fill-opacity="1"></path></g></g><g><g transform="matrix(1,0,0,1,84.01042480468749,60.784716796875)"><path transform="matrix(0.017,0,0,-0.017,0,0)" d="M722 250C722 261 713 270 702 270L76 270C65 270 56 261 56 250C56 239 65 230 76 230L702 230C713 230 722 239 722 250Z" stroke="rgb(0,0,0)" stroke-opacity="1" stroke-width="8" fill="rgb(0,0,0)" fill-opacity="1"></path></g></g><g><g transform="matrix(1,0,0,1,100.62501220703126,60.784716796875)"><path transform="matrix(0.017,0,0,-0.017,0,0)" d="" stroke="rgb(0,0,0)" stroke-opacity="1" stroke-width="8" fill="rgb(0,0,0)" fill-opacity="1"></path></g></g><g><g><g><g><g transform="matrix(1,0,0,1,108.22917480468752,48.388891601562506)"><path transform="matrix(0.017,0,0,-0.017,0,0)" d="M429 396C429 415 368 453 300 453C185 453 77 386 77 310C77 267 113 242 117 239C58 206 26 150 26 104C26 39 83 -22 189 -22C321 -22 377 66 377 81C377 87 372 91 366 91C361 91 358 87 356 84C342 61 318 24 198 24C137 24 52 39 52 110C52 144 80 197 141 227C174 213 203 213 227 213C253 213 308 213 308 244C308 268 273 271 235 271C214 271 179 269 142 252C119 264 102 283 102 310C102 371 200 407 290 407C306 407 342 407 382 379C393 371 395 369 402 369C415 369 429 382 429 396ZM282 243C267 236 265 235 227 235C205 235 193 235 174 240C197 248 218 249 235 249C260 249 264 248 282 243Z" stroke="rgb(0,0,0)" stroke-opacity="1" stroke-width="8" fill="rgb(0,0,0)" fill-opacity="1"></path></g></g></g></g><g><g><g><g transform="matrix(1,0,0,1,107.9513916015625,74.1701416015625)"><path transform="matrix(0.017,0,0,-0.017,0,0)" d="M457 171C457 253 394 331 290 352C372 379 430 449 430 528C430 610 342 666 246 666C145 666 69 606 69 530C69 497 91 478 120 478C151 478 171 500 171 529C171 579 124 579 109 579C140 628 206 641 242 641C283 641 338 619 338 529C338 517 336 459 310 415C280 367 246 364 221 363C213 362 189 360 182 360C174 359 167 358 167 348C167 337 174 337 191 337L235 337C317 337 354 269 354 171C354 35 285 6 241 6C198 6 123 23 88 82C123 77 154 99 154 137C154 173 127 193 98 193C74 193 42 179 42 135C42 44 135 -22 244 -22C366 -22 457 69 457 171Z" stroke="rgb(0,0,0)" stroke-opacity="1" stroke-width="8" fill="rgb(0,0,0)" fill-opacity="1"></path></g></g></g></g><line style="fill:none;stroke-width:1.11111px;stroke:rgb(0, 0, 0);" x1="107.9513916015625" y1="56.21527376174927" x2="116.45833663940431" y2="56.21527376174927"></line></g></g></g><g><g><g><g transform="matrix(1,0,0,1,281.49306640624997,61.58333740234376)"><path transform="matrix(0.017,0,0,-0.017,0,0)" d="M398 627C398 644 398 705 339 705C256 705 182 540 172 517C124 408 93 291 93 172L16 99C14 96 11 93 11 89C11 84 17 76 23 76C28 76 31 79 59 107C67 114 87 133 95 141C105 62 134 -12 207 -12C247 -12 282 11 303 26C317 36 364 75 364 85C364 88 361 97 352 97C349 97 348 96 339 88C275 25 238 10 209 10C164 10 148 62 148 140C148 146 150 192 153 197C155 200 155 202 175 222C256 303 398 472 398 627ZM374 631C374 464 206 289 158 239C160 250 203 472 260 589C287 643 308 683 340 683C374 683 374 647 374 631Z" stroke="rgb(0,0,0)" stroke-opacity="1" stroke-width="8" fill="rgb(0,0,0)" fill-opacity="1"></path></g></g><g><g transform="matrix(1,0,0,1,297.6041748046875,61.58333740234376)"><path transform="matrix(0.017,0,0,-0.017,0,0)" d="M722 250C722 261 713 270 702 270L409 270L409 563C409 574 400 583 389 583C378 583 369 574 369 563L369 270L76 270C65 270 56 261 56 250C56 239 65 230 76 230L369 230L369 -63C369 -74 378 -83 389 -83C400 -83 409 -74 409 -63L409 230L702 230C713 230 722 239 722 250Z" stroke="rgb(0,0,0)" stroke-opacity="1" stroke-width="8" fill="rgb(0,0,0)" fill-opacity="1"></path></g></g><g><g transform="matrix(1,0,0,1,314.21877441406247,61.58333740234376)"><path transform="matrix(0.017,0,0,-0.017,0,0)" d="" stroke="rgb(0,0,0)" stroke-opacity="1" stroke-width="8" fill="rgb(0,0,0)" fill-opacity="1"></path></g></g><g><g><g><g><g transform="matrix(1,0,0,1,321.8229248046875,49.1875)"><path transform="matrix(0.017,0,0,-0.017,0,0)" d="M429 396C429 415 368 453 300 453C185 453 77 386 77 310C77 267 113 242 117 239C58 206 26 150 26 104C26 39 83 -22 189 -22C321 -22 377 66 377 81C377 87 372 91 366 91C361 91 358 87 356 84C342 61 318 24 198 24C137 24 52 39 52 110C52 144 80 197 141 227C174 213 203 213 227 213C253 213 308 213 308 244C308 268 273 271 235 271C214 271 179 269 142 252C119 264 102 283 102 310C102 371 200 407 290 407C306 407 342 407 382 379C393 371 395 369 402 369C415 369 429 382 429 396ZM282 243C267 236 265 235 227 235C205 235 193 235 174 240C197 248 218 249 235 249C260 249 264 248 282 243Z" stroke="rgb(0,0,0)" stroke-opacity="1" stroke-width="8" fill="rgb(0,0,0)" fill-opacity="1"></path></g></g></g></g><g><g><g><g transform="matrix(1,0,0,1,321.5451416015625,74.96875)"><path transform="matrix(0.017,0,0,-0.017,0,0)" d="M457 171C457 253 394 331 290 352C372 379 430 449 430 528C430 610 342 666 246 666C145 666 69 606 69 530C69 497 91 478 120 478C151 478 171 500 171 529C171 579 124 579 109 579C140 628 206 641 242 641C283 641 338 619 338 529C338 517 336 459 310 415C280 367 246 364 221 363C213 362 189 360 182 360C174 359 167 358 167 348C167 337 174 337 191 337L235 337C317 337 354 269 354 171C354 35 285 6 241 6C198 6 123 23 88 82C123 77 154 99 154 137C154 173 127 193 98 193C74 193 42 179 42 135C42 44 135 -22 244 -22C366 -22 457 69 457 171Z" stroke="rgb(0,0,0)" stroke-opacity="1" stroke-width="8" fill="rgb(0,0,0)" fill-opacity="1"></path></g></g></g></g><line style="fill:none;stroke-width:1.11111px;stroke:rgb(0, 0, 0);" x1="321.5451416015625" y1="57.013894367218015" x2="330.05208663940425" y2="57.013894367218015"></line></g></g></g><g><g><g><g transform="matrix(1,0,0,1,384.70485839843747,61.58333740234376)"><path transform="matrix(0.017,0,0,-0.017,0,0)" d="M398 627C398 644 398 705 339 705C256 705 182 540 172 517C124 408 93 291 93 172L16 99C14 96 11 93 11 89C11 84 17 76 23 76C28 76 31 79 59 107C67 114 87 133 95 141C105 62 134 -12 207 -12C247 -12 282 11 303 26C317 36 364 75 364 85C364 88 361 97 352 97C349 97 348 96 339 88C275 25 238 10 209 10C164 10 148 62 148 140C148 146 150 192 153 197C155 200 155 202 175 222C256 303 398 472 398 627ZM374 631C374 464 206 289 158 239C160 250 203 472 260 589C287 643 308 683 340 683C374 683 374 647 374 631ZM591 670C593 690 576 705 556 705C536 705 519 690 521 670L543 423L569 423Z" stroke="rgb(0,0,0)" stroke-opacity="1" stroke-width="8" fill="rgb(0,0,0)" fill-opacity="1"></path></g></g><g><g transform="matrix(1,0,0,1,405.5382080078125,61.58333740234376)"><path transform="matrix(0.017,0,0,-0.017,0,0)" d="M722 250C722 261 713 270 702 270L76 270C65 270 56 261 56 250C56 239 65 230 76 230L702 230C713 230 722 239 722 250Z" stroke="rgb(0,0,0)" stroke-opacity="1" stroke-width="8" fill="rgb(0,0,0)" fill-opacity="1"></path></g></g><g><g transform="matrix(1,0,0,1,422.1528076171875,61.58333740234376)"><path transform="matrix(0.017,0,0,-0.017,0,0)" d="" stroke="rgb(0,0,0)" stroke-opacity="1" stroke-width="8" fill="rgb(0,0,0)" fill-opacity="1"></path></g></g><g><g><g><g><g transform="matrix(1,0,0,1,429.7569580078125,49.1875)"><path transform="matrix(0.017,0,0,-0.017,0,0)" d="M429 396C429 415 368 453 300 453C185 453 77 386 77 310C77 267 113 242 117 239C58 206 26 150 26 104C26 39 83 -22 189 -22C321 -22 377 66 377 81C377 87 372 91 366 91C361 91 358 87 356 84C342 61 318 24 198 24C137 24 52 39 52 110C52 144 80 197 141 227C174 213 203 213 227 213C253 213 308 213 308 244C308 268 273 271 235 271C214 271 179 269 142 252C119 264 102 283 102 310C102 371 200 407 290 407C306 407 342 407 382 379C393 371 395 369 402 369C415 369 429 382 429 396ZM282 243C267 236 265 235 227 235C205 235 193 235 174 240C197 248 218 249 235 249C260 249 264 248 282 243Z" stroke="rgb(0,0,0)" stroke-opacity="1" stroke-width="8" fill="rgb(0,0,0)" fill-opacity="1"></path></g></g></g></g><g><g><g><g transform="matrix(1,0,0,1,429.4791748046875,74.96875)"><path transform="matrix(0.017,0,0,-0.017,0,0)" d="M457 171C457 253 394 331 290 352C372 379 430 449 430 528C430 610 342 666 246 666C145 666 69 606 69 530C69 497 91 478 120 478C151 478 171 500 171 529C171 579 124 579 109 579C140 628 206 641 242 641C283 641 338 619 338 529C338 517 336 459 310 415C280 367 246 364 221 363C213 362 189 360 182 360C174 359 167 358 167 348C167 337 174 337 191 337L235 337C317 337 354 269 354 171C354 35 285 6 241 6C198 6 123 23 88 82C123 77 154 99 154 137C154 173 127 193 98 193C74 193 42 179 42 135C42 44 135 -22 244 -22C366 -22 457 69 457 171Z" stroke="rgb(0,0,0)" stroke-opacity="1" stroke-width="8" fill="rgb(0,0,0)" fill-opacity="1"></path></g></g></g></g><line style="fill:none;stroke-width:1.11111px;stroke:rgb(0, 0, 0);" x1="429.4791748046875" y1="57.013894367218015" x2="437.98611984252926" y2="57.013894367218015"></line></g></g></g><g><g><g><g transform="matrix(1,0,0,1,577.8993408203124,60.385412597656256)"><path transform="matrix(0.017,0,0,-0.017,0,0)" d="M398 627C398 644 398 705 339 705C256 705 182 540 172 517C124 408 93 291 93 172L16 99C14 96 11 93 11 89C11 84 17 76 23 76C28 76 31 79 59 107C67 114 87 133 95 141C105 62 134 -12 207 -12C247 -12 282 11 303 26C317 36 364 75 364 85C364 88 361 97 352 97C349 97 348 96 339 88C275 25 238 10 209 10C164 10 148 62 148 140C148 146 150 192 153 197C155 200 155 202 175 222C256 303 398 472 398 627ZM374 631C374 464 206 289 158 239C160 250 203 472 260 589C287 643 308 683 340 683C374 683 374 647 374 631ZM591 670C593 690 576 705 556 705C536 705 519 690 521 670L543 423L569 423Z" stroke="rgb(0,0,0)" stroke-opacity="1" stroke-width="8" fill="rgb(0,0,0)" fill-opacity="1"></path></g></g><g><g transform="matrix(1,0,0,1,598.7326904296875,60.385412597656256)"><path transform="matrix(0.017,0,0,-0.017,0,0)" d="M722 250C722 261 713 270 702 270L409 270L409 563C409 574 400 583 389 583C378 583 369 574 369 563L369 270L76 270C65 270 56 261 56 250C56 239 65 230 76 230L369 230L369 -63C369 -74 378 -83 389 -83C400 -83 409 -74 409 -63L409 230L702 230C713 230 722 239 722 250Z" stroke="rgb(0,0,0)" stroke-opacity="1" stroke-width="8" fill="rgb(0,0,0)" fill-opacity="1"></path></g></g><g><g transform="matrix(1,0,0,1,615.3472412109375,60.385412597656256)"><path transform="matrix(0.017,0,0,-0.017,0,0)" d="" stroke="rgb(0,0,0)" stroke-opacity="1" stroke-width="8" fill="rgb(0,0,0)" fill-opacity="1"></path></g></g><g><g><g><g><g transform="matrix(1,0,0,1,622.9514404296875,47.98958740234376)"><path transform="matrix(0.017,0,0,-0.017,0,0)" d="M429 396C429 415 368 453 300 453C185 453 77 386 77 310C77 267 113 242 117 239C58 206 26 150 26 104C26 39 83 -22 189 -22C321 -22 377 66 377 81C377 87 372 91 366 91C361 91 358 87 356 84C342 61 318 24 198 24C137 24 52 39 52 110C52 144 80 197 141 227C174 213 203 213 227 213C253 213 308 213 308 244C308 268 273 271 235 271C214 271 179 269 142 252C119 264 102 283 102 310C102 371 200 407 290 407C306 407 342 407 382 379C393 371 395 369 402 369C415 369 429 382 429 396ZM282 243C267 236 265 235 227 235C205 235 193 235 174 240C197 248 218 249 235 249C260 249 264 248 282 243Z" stroke="rgb(0,0,0)" stroke-opacity="1" stroke-width="8" fill="rgb(0,0,0)" fill-opacity="1"></path></g></g></g></g><g><g><g><g transform="matrix(1,0,0,1,622.6736572265625,73.77083740234376)"><path transform="matrix(0.017,0,0,-0.017,0,0)" d="M457 171C457 253 394 331 290 352C372 379 430 449 430 528C430 610 342 666 246 666C145 666 69 606 69 530C69 497 91 478 120 478C151 478 171 500 171 529C171 579 124 579 109 579C140 628 206 641 242 641C283 641 338 619 338 529C338 517 336 459 310 415C280 367 246 364 221 363C213 362 189 360 182 360C174 359 167 358 167 348C167 337 174 337 191 337L235 337C317 337 354 269 354 171C354 35 285 6 241 6C198 6 123 23 88 82C123 77 154 99 154 137C154 173 127 193 98 193C74 193 42 179 42 135C42 44 135 -22 244 -22C366 -22 457 69 457 171Z" stroke="rgb(0,0,0)" stroke-opacity="1" stroke-width="8" fill="rgb(0,0,0)" fill-opacity="1"></path></g></g></g></g><line style="fill:none;stroke-width:1.11111px;stroke:rgb(0, 0, 0);" x1="622.6736572265625" y1="55.815969562530526" x2="631.1806022644042" y2="55.815969562530526"></line></g></g></g></svg>
</svg>
